<svg width="722" height="199" viewBox="0 0 722 199" fill="none" xmlns="http://www.w3.org/2000/svg">
<rect x="3" y="35.1302" width="99.1653" height="101.792" rx="17" stroke="#645FC6" stroke-width="6"/>
<rect x="37.381" y="75.5521" width="99.1653" height="101.792" rx="17" stroke="#6AE2AD" stroke-width="6"/>
<path d="M214.862 141L187.342 110.024V141H175.694V46.28H187.342V101.96L214.35 70.856H230.606L197.582 105.8L230.734 141H214.862ZM249.377 105.672C249.377 98.504 250.827 92.232 253.729 86.856C256.63 81.3947 260.598 77.1707 265.633 74.184C270.753 71.1973 276.427 69.704 282.657 69.704C288.801 69.704 294.134 71.0267 298.657 73.672C303.179 76.3173 306.55 79.6453 308.769 83.656V70.856H320.545V141H308.769V127.944C306.465 132.04 303.009 135.453 298.401 138.184C293.878 140.829 288.587 142.152 282.529 142.152C276.299 142.152 270.667 140.616 265.633 137.544C260.598 134.472 256.63 130.163 253.729 124.616C250.827 119.069 249.377 112.755 249.377 105.672ZM308.769 105.8C308.769 100.509 307.702 95.9013 305.569 91.976C303.435 88.0507 300.534 85.064 296.865 83.016C293.281 80.8827 289.313 79.816 284.961 79.816C280.609 79.816 276.641 80.84 273.057 82.888C269.473 84.936 266.614 87.9227 264.481 91.848C262.347 95.7733 261.281 100.381 261.281 105.672C261.281 111.048 262.347 115.741 264.481 119.752C266.614 123.677 269.473 126.707 273.057 128.84C276.641 130.888 280.609 131.912 284.961 131.912C289.313 131.912 293.281 130.888 296.865 128.84C300.534 126.707 303.435 123.677 305.569 119.752C307.702 115.741 308.769 111.091 308.769 105.8ZM386.565 69.576C395.098 69.576 402.01 72.1787 407.301 77.384C412.591 82.504 415.237 89.928 415.237 99.656V141H403.717V101.32C403.717 94.3227 401.967 88.9893 398.469 85.32C394.97 81.5653 390.191 79.688 384.133 79.688C377.989 79.688 373.082 81.608 369.413 85.448C365.829 89.288 364.037 94.8773 364.037 102.216V141H352.389V70.856H364.037V80.84C366.341 77.256 369.455 74.4827 373.381 72.52C377.391 70.5573 381.786 69.576 386.565 69.576ZM458.072 83.912C460.461 79.7307 463.96 76.3173 468.568 73.672C473.176 71.0267 478.424 69.704 484.312 69.704C490.626 69.704 496.301 71.1973 501.336 74.184C506.37 77.1707 510.338 81.3947 513.24 86.856C516.141 92.232 517.592 98.504 517.592 105.672C517.592 112.755 516.141 119.069 513.24 124.616C510.338 130.163 506.328 134.472 501.208 137.544C496.173 140.616 490.541 142.152 484.312 142.152C478.253 142.152 472.92 140.829 468.312 138.184C463.789 135.539 460.376 132.168 458.072 128.072V141H446.424V46.28H458.072V83.912ZM505.688 105.672C505.688 100.381 504.621 95.7733 502.488 91.848C500.354 87.9227 497.453 84.936 493.784 82.888C490.2 80.84 486.232 79.816 481.88 79.816C477.613 79.816 473.645 80.8827 469.976 83.016C466.392 85.064 463.49 88.0933 461.272 92.104C459.138 96.0293 458.072 100.595 458.072 105.8C458.072 111.091 459.138 115.741 461.272 119.752C463.49 123.677 466.392 126.707 469.976 128.84C473.645 130.888 477.613 131.912 481.88 131.912C486.232 131.912 490.2 130.888 493.784 128.84C497.453 126.707 500.354 123.677 502.488 119.752C504.621 115.741 505.688 111.048 505.688 105.672ZM540.732 105.672C540.732 98.504 542.182 92.232 545.084 86.856C547.985 81.3947 551.953 77.1707 556.988 74.184C562.108 71.1973 567.782 69.704 574.012 69.704C580.156 69.704 585.489 71.0267 590.012 73.672C594.534 76.3173 597.905 79.6453 600.124 83.656V70.856H611.9V141H600.124V127.944C597.82 132.04 594.364 135.453 589.756 138.184C585.233 140.829 579.942 142.152 573.884 142.152C567.654 142.152 562.022 140.616 556.988 137.544C551.953 134.472 547.985 130.163 545.084 124.616C542.182 119.069 540.732 112.755 540.732 105.672ZM600.124 105.8C600.124 100.509 599.057 95.9013 596.924 91.976C594.79 88.0507 591.889 85.064 588.22 83.016C584.636 80.8827 580.668 79.816 576.316 79.816C571.964 79.816 567.996 80.84 564.412 82.888C560.828 84.936 557.969 87.9227 555.836 91.848C553.702 95.7733 552.636 100.381 552.636 105.672C552.636 111.048 553.702 115.741 555.836 119.752C557.969 123.677 560.828 126.707 564.412 128.84C567.996 130.888 571.964 131.912 576.316 131.912C580.668 131.912 584.636 130.888 588.22 128.84C591.889 126.707 594.79 123.677 596.924 119.752C599.057 115.741 600.124 111.091 600.124 105.8ZM677.92 69.576C686.453 69.576 693.365 72.1787 698.656 77.384C703.946 82.504 706.592 89.928 706.592 99.656V141H695.072V101.32C695.072 94.3227 693.322 88.9893 689.824 85.32C686.325 81.5653 681.546 79.688 675.488 79.688C669.344 79.688 664.437 81.608 660.768 85.448C657.184 89.288 655.392 94.8773 655.392 102.216V141H643.744V70.856H655.392V80.84C657.696 77.256 660.81 74.4827 664.736 72.52C668.746 70.5573 673.141 69.576 677.92 69.576Z" fill="white"/>
</svg>
