<svg width="778" height="199" viewBox="0 0 778 199" fill="none" xmlns="http://www.w3.org/2000/svg">
<rect x="3" y="68.1302" width="99.1653" height="101.792" rx="17" fill="#645EDB" stroke="#645EDB" stroke-width="6"/>
<rect x="29" y="49" width="99.1653" height="101.792" rx="17" fill="#44C5E3" stroke="#44C5E3" stroke-width="6"/>
<rect x="56" y="28" width="99.1653" height="101.792" rx="17" fill="#6AE2AD" stroke="#6AE2AD" stroke-width="6"/>
<path d="M270.024 141L242.504 110.024V141H230.856V46.28H242.504V101.96L269.512 70.856H285.768L252.744 105.8L285.896 141H270.024ZM304.539 105.672C304.539 98.504 305.99 92.232 308.891 86.856C311.792 81.3947 315.76 77.1707 320.795 74.184C325.915 71.1973 331.59 69.704 337.819 69.704C343.963 69.704 349.296 71.0267 353.819 73.672C358.342 76.3173 361.712 79.6453 363.931 83.656V70.856H375.707V141H363.931V127.944C361.627 132.04 358.171 135.453 353.563 138.184C349.04 140.829 343.75 142.152 337.691 142.152C331.462 142.152 325.83 140.616 320.795 137.544C315.76 134.472 311.792 130.163 308.891 124.616C305.99 119.069 304.539 112.755 304.539 105.672ZM363.931 105.8C363.931 100.509 362.864 95.9013 360.731 91.976C358.598 88.0507 355.696 85.064 352.027 83.016C348.443 80.8827 344.475 79.816 340.123 79.816C335.771 79.816 331.803 80.84 328.219 82.888C324.635 84.936 321.776 87.9227 319.643 91.848C317.51 95.7733 316.443 100.381 316.443 105.672C316.443 111.048 317.51 115.741 319.643 119.752C321.776 123.677 324.635 126.707 328.219 128.84C331.803 130.888 335.771 131.912 340.123 131.912C344.475 131.912 348.443 130.888 352.027 128.84C355.696 126.707 358.598 123.677 360.731 119.752C362.864 115.741 363.931 111.091 363.931 105.8ZM441.727 69.576C450.26 69.576 457.172 72.1787 462.463 77.384C467.754 82.504 470.399 89.928 470.399 99.656V141H458.879V101.32C458.879 94.3227 457.13 88.9893 453.631 85.32C450.132 81.5653 445.354 79.688 439.295 79.688C433.151 79.688 428.244 81.608 424.575 85.448C420.991 89.288 419.199 94.8773 419.199 102.216V141H407.551V70.856H419.199V80.84C421.503 77.256 424.618 74.4827 428.543 72.52C432.554 70.5573 436.948 69.576 441.727 69.576ZM513.234 83.912C515.623 79.7307 519.122 76.3173 523.73 73.672C528.338 71.0267 533.586 69.704 539.474 69.704C545.789 69.704 551.463 71.1973 556.498 74.184C561.533 77.1707 565.501 81.3947 568.402 86.856C571.303 92.232 572.754 98.504 572.754 105.672C572.754 112.755 571.303 119.069 568.402 124.616C565.501 130.163 561.49 134.472 556.37 137.544C551.335 140.616 545.703 142.152 539.474 142.152C533.415 142.152 528.082 140.829 523.474 138.184C518.951 135.539 515.538 132.168 513.234 128.072V141H501.586V46.28H513.234V83.912ZM560.85 105.672C560.85 100.381 559.783 95.7733 557.65 91.848C555.517 87.9227 552.615 84.936 548.946 82.888C545.362 80.84 541.394 79.816 537.042 79.816C532.775 79.816 528.807 80.8827 525.138 83.016C521.554 85.064 518.653 88.0933 516.434 92.104C514.301 96.0293 513.234 100.595 513.234 105.8C513.234 111.091 514.301 115.741 516.434 119.752C518.653 123.677 521.554 126.707 525.138 128.84C528.807 130.888 532.775 131.912 537.042 131.912C541.394 131.912 545.362 130.888 548.946 128.84C552.615 126.707 555.517 123.677 557.65 119.752C559.783 115.741 560.85 111.048 560.85 105.672ZM595.894 105.672C595.894 98.504 597.345 92.232 600.246 86.856C603.147 81.3947 607.115 77.1707 612.15 74.184C617.27 71.1973 622.945 69.704 629.174 69.704C635.318 69.704 640.651 71.0267 645.174 73.672C649.697 76.3173 653.067 79.6453 655.286 83.656V70.856H667.062V141H655.286V127.944C652.982 132.04 649.526 135.453 644.918 138.184C640.395 140.829 635.105 142.152 629.046 142.152C622.817 142.152 617.185 140.616 612.15 137.544C607.115 134.472 603.147 130.163 600.246 124.616C597.345 119.069 595.894 112.755 595.894 105.672ZM655.286 105.8C655.286 100.509 654.219 95.9013 652.086 91.976C649.953 88.0507 647.051 85.064 643.382 83.016C639.798 80.8827 635.83 79.816 631.478 79.816C627.126 79.816 623.158 80.84 619.574 82.888C615.99 84.936 613.131 87.9227 610.998 91.848C608.865 95.7733 607.798 100.381 607.798 105.672C607.798 111.048 608.865 115.741 610.998 119.752C613.131 123.677 615.99 126.707 619.574 128.84C623.158 130.888 627.126 131.912 631.478 131.912C635.83 131.912 639.798 130.888 643.382 128.84C647.051 126.707 649.953 123.677 652.086 119.752C654.219 115.741 655.286 111.091 655.286 105.8ZM733.082 69.576C741.615 69.576 748.527 72.1787 753.818 77.384C759.109 82.504 761.754 89.928 761.754 99.656V141H750.234V101.32C750.234 94.3227 748.485 88.9893 744.986 85.32C741.487 81.5653 736.709 79.688 730.65 79.688C724.506 79.688 719.599 81.608 715.93 85.448C712.346 89.288 710.554 94.8773 710.554 102.216V141H698.906V70.856H710.554V80.84C712.858 77.256 715.973 74.4827 719.898 72.52C723.909 70.5573 728.303 69.576 733.082 69.576Z" fill="white"/>
</svg>
